HIERARCHY
ROOT Hips
{
 OFFSET 0.000000 0.000000 0.000000
 CHANNELS 6 Xposition Yposition Zposition Yrotation Xrotation Zrotation
 JOINT Chest
 {
  OFFSET 0.000000 9.585900 0.002600
  CHANNELS 3 Yrotation Xrotation Zrotation
  JOINT Chest2
  {
   OFFSET 0.000000 9.601200 -0.005300
   CHANNELS 3 Yrotation Xrotation Zrotation
   JOINT Chest3
   {
    OFFSET 0.000000 9.561800 0.000000
    CHANNELS 3 Yrotation Xrotation Zrotation
    JOINT Chest4
    {
     OFFSET 0.000000 9.552100 0.000000
     CHANNELS 3 Yrotation Xrotation Zrotation
     JOINT Neck
     {
      OFFSET 0.000000 14.453000 0.000000
      CHANNELS 3 Yrotation Xrotation Zrotation
      JOINT Head
      {
       OFFSET 0.000000 8.936500 -0.011300
       CHANNELS 3 Yrotation Xrotation Zrotation
       End Site
       {
        OFFSET 0.000000 17.073600 -0.006000
       }
      }
     }
     JOINT RightCollar
     {
      OFFSET -2.921100 9.558500 0.000000
      CHANNELS 3 Yrotation Xrotation Zrotation
      JOINT RightShoulder
      {
       OFFSET -13.519700 0.000000 0.000000
       CHANNELS 3 Yrotation Xrotation Zrotation
       JOINT RightElbow
       {
        OFFSET 0.000000 -29.696600 0.000000
        CHANNELS 3 Yrotation Xrotation Zrotation
        JOINT RightWrist
        {
         OFFSET 0.000000 -24.004700 0.000000
         CHANNELS 3 Yrotation Xrotation Zrotation
         End Site
         {
          OFFSET 0.000000 -17.728500 0.000000
         }
        }
       }
      }
     }
     JOINT LeftCollar
     {
      OFFSET 2.921100 9.558500 0.000000
      CHANNELS 3 Yrotation Xrotation Zrotation
      JOINT LeftShoulder
      {
       OFFSET 13.519700 0.000000 0.000000
       CHANNELS 3 Yrotation Xrotation Zrotation
       JOINT LeftElbow
       {
        OFFSET 0.000000 -29.696600 0.000000
        CHANNELS 3 Yrotation Xrotation Zrotation
        JOINT LeftWrist
        {
         OFFSET 0.000000 -24.004700 0.000000
         CHANNELS 3 Yrotation Xrotation Zrotation
         End Site
         {
          OFFSET 0.000000 -17.728500 0.000000
         }
        }
       }
      }
     }
    }
   }
  }
 }
 JOINT RightHip
 {
  OFFSET -7.771700 -0.012900 -0.001300
  CHANNELS 3 Yrotation Xrotation Zrotation
  JOINT RightKnee
  {
   OFFSET 0.000000 -40.869800 0.001200
   CHANNELS 3 Yrotation Xrotation Zrotation
   JOINT RightAnkle
   {
    OFFSET 0.000000 -39.717900 0.002100
    CHANNELS 3 Yrotation Xrotation Zrotation
    JOINT RightToe
    {
     OFFSET 0.000000 -4.965400 11.033500
     CHANNELS 3 Yrotation Xrotation Zrotation
     End Site
     {
      OFFSET 0.000000 -1.423100 5.872300
     }
    }
   }
  }
 }
 JOINT LeftHip
 {
  OFFSET 7.771700 -0.012900 -0.001300
  CHANNELS 3 Yrotation Xrotation Zrotation
  JOINT LeftKnee
  {
   OFFSET 0.000000 -40.869800 0.001200
   CHANNELS 3 Yrotation Xrotation Zrotation
   JOINT LeftAnkle
   {
    OFFSET 0.000000 -39.717900 0.002100
    CHANNELS 3 Yrotation Xrotation Zrotation
    JOINT LeftToe
    {
     OFFSET 0.000000 -4.965400 11.033500
     CHANNELS 3 Yrotation Xrotation Zrotation
     End Site
     {
      OFFSET 0.000000 -1.423100 5.872300
     }
    }
   }
  }
 }
}
MOTION
Frames: 11
Frame Time: 0.008333
0.000000 85.388000 0.000000 0.000000 -5.767877 0.000000 0.000000 11.653817 0.000000 0.000000 -5.885947 0.000000 0.000000 -0.000000 0.000000 0.000000 -0.000000 0.000000 0.000000 12.528835 0.000000 0.000000 0.711642 0.000000 0.000000 -0.000000 0.000000 0.000000 0.000000 -90.000000 0.000000 -2.309062 0.000000 0.000000 2.309062 0.000000 0.000000 -0.000000 0.000000 0.000000 -0.000000 90.000000 0.000000 -2.309062 0.000000 0.000000 2.309062 0.000000 0.000000 8.520406 0.000000 0.000000 1.905762 0.000000 -0.000000 -4.658285 0.000000 0.000000 -0.000000 0.000000 0.000000 8.520406 0.000000 0.000000 1.905762 0.000000 -0.000000 -4.658285 0.000000 0.000000 -0.000000 0.000000
-25.671836 54.652944 38.951173 -178.791295 -31.131437 -11.571241 -1.347051 12.040383 5.617280 -0.720006 7.060089 1.995254 -0.883716 8.791691 2.488765 -0.716144 7.065792 1.991050 4.893950 19.411929 0.458022 5.154945 -5.033826 -0.637418 1.413806 1.641141 -2.450480 -17.351292 -5.434528 6.255217 -11.026582 -71.601737 26.619380 8.385720 -5.706903 -8.142482 -8.102431 3.753646 -3.507273 5.907270 -0.547068 -1.840524 -67.861110 -74.700593 72.952937 12.697012 -16.690086 3.945730 -14.184013 -35.729840 2.010292 36.559461 83.653602 31.242630 -0.340019 -16.896878 6.433254 -1.105820 2.126817 -0.497580 -17.257308 -46.752667 16.462065 170.764663 79.439200 166.016783 -2.040028 -16.335078 1.502981 -0.803316 -1.803980 -0.363872
-25.671582 54.657776 38.948926 -178.777364 -31.096917 -11.571787 -1.363294 12.033855 5.614338 -0.730161 7.032945 1.995301 -0.897358 8.754858 2.491157 -0.711690 7.073500 1.984978 4.873296 19.475406 0.477745 5.162638 -4.987609 -0.643724 1.400723 1.656424 -2.447461 -17.363103 -5.452175 6.267986 -10.052860 -71.785676 25.678111 8.457079 -5.622160 -7.761658 -8.084218 3.736243 -3.490866 5.890487 -0.501439 -1.859971 -68.123495 -74.632348 73.207482 12.716508 -16.760829 3.933687 -14.196838 -35.762587 2.009682 36.701520 83.656737 31.382120 -0.350882 -16.917776 6.441891 -1.107674 2.133525 -0.501231 -17.308201 -46.781054 16.478816 170.752410 79.437204 165.995077 -2.031285 -16.336356 1.492552 -0.801043 -1.801357 -0.365963
-25.668865 54.664517 38.944829 -178.780145 -31.072926 -11.578808 -1.358545 12.031324 5.628038 -0.741254 7.005635 1.996423 -0.915544 8.720825 2.491723 -0.718651 7.046555 1.985980 4.868168 19.565945 0.487531 5.147521 -4.852945 -0.619800 1.402707 1.708919 -2.450956 -17.443930 -5.479429 6.298637 -8.888323 -71.961905 24.618293 8.528481 -5.558380 -7.428910 -8.063345 3.755059 -3.491590 5.849299 -0.468801 -1.865621 -68.310859 -74.564790 73.416379 12.734190 -16.830952 3.916396 -14.211164 -35.783097 2.029531 36.744756 83.661593 31.420512 -0.351870 -16.933316 6.445807 -1.105654 2.138622 -0.502822 -17.334983 -46.798647 16.502915 170.750401 79.433660 165.997144 -2.024637 -16.340616 1.484746 -0.804385 -1.800727 -0.368825
-25.666262 54.669217 38.943873 -178.787435 -31.022459 -11.582753 -1.372827 12.009919 5.639466 -0.742403 6.968717 1.995584 -0.914847 8.710420 2.488675 -0.761600 6.955059 2.000806 4.889926 19.691832 0.486380 5.142511 -4.737665 -0.603138 1.370583 1.772459 -2.434038 -17.421555 -5.456725 6.257369 -7.847961 -72.159994 23.665154 8.588332 -5.522818 -7.184373 -8.021201 3.816445 -3.512654 5.828484 -0.434098 -1.867091 -68.516942 -74.498908 73.623926 12.748742 -16.892942 3.894151 -14.232085 -35.833670 2.055532 36.815553 83.667357 31.486952 -0.348984 -16.951711 6.447189 -1.111267 2.148762 -0.504374 -17.372907 -46.846104 16.538697 170.738610 79.429156 165.989402 -2.017299 -16.345361 1.477563 -0.810468 -1.796321 -0.372552
-25.663731 54.674493 38.941344 -178.786733 -30.979128 -11.591083 -1.383478 11.974061 5.648917 -0.770791 6.942760 2.000613 -0.899272 8.711702 2.480677 -0.786886 6.900885 2.012030 4.904377 19.768197 0.486682 5.150823 -4.669192 -0.601958 1.385927 1.836377 -2.442555 -17.473325 -5.454647 6.249946 -6.894956 -72.337764 22.819448 8.631238 -5.526662 -7.040680 -7.998901 3.848507 -3.524587 5.834660 -0.419672 -1.830268 -68.640509 -74.465593 73.724284 12.795808 -16.897291 3.894564 -14.258530 -35.874809 2.076795 36.971707 83.668648 31.640735 -0.354455 -16.972582 6.441670 -1.112160 2.158871 -0.503635 -17.442924 -46.887583 16.577468 170.667427 79.413098 165.911553 -1.986798 -16.330026 1.464335 -0.828852 -1.813268 -0.384888
-25.660440 54.676436 38.943589 -178.798623 -30.903397 -11.596842 -1.388832 11.903773 5.663581 -0.778767 6.930218 2.002724 -0.934816 8.649528 2.493574 -0.768557 6.930394 1.997239 4.912237 19.799012 0.488536 5.165195 -4.619047 -0.606865 1.386369 1.866618 -2.444744 -17.489998 -5.448995 6.236957 -6.126188 -72.491303 22.130780 8.657638 -5.568020 -6.983696 -7.990163 3.850442 -3.522232 5.853705 -0.397472 -1.818577 -68.817865 -74.420104 73.867375 12.787606 -16.967961 3.850757 -14.295228 -35.950997 2.118587 37.064865 83.672227 31.726323 -0.353215 -16.996711 6.441847 -1.120067 2.178443 -0.506645 -17.495346 -46.962930 16.630759 170.642320 79.405746 165.893316 -1.979510 -16.336197 1.453974 -0.836552 -1.803300 -0.383291
-25.658182 54.681662 38.938679 -178.802681 -30.876464 -11.599961 -1.396895 11.887777 5.670668 -0.774734 6.917665 2.001357 -0.952010 8.621955 2.501515 -0.774926 6.913101 1.998867 4.930183 19.825440 0.481635 5.177029 -4.583083 -0.612848 1.366590 1.885826 -2.433918 -17.478956 -5.433068 6.199759 -5.550745 -72.611031 21.642392 8.668705 -5.632426 -6.988044 -7.974082 3.823405 -3.500821 5.866906 -0.330867 -1.841789 -69.009291 -74.371070 74.029043 12.783151 -17.026429 3.811859 -14.315222 -35.978297 2.136260 37.134495 83.682664 31.786345 -0.345821 -17.016654 6.445936 -1.125989 2.186034 -0.510783 -17.517669 -46.986781 16.649466 170.624917 79.398456 165.882741 -1.975474 -16.341774 1.447214 -0.836101 -1.803397 -0.386452
-25.656858 54.686724 38.932208 -178.799158 -30.858775 -11.598765 -1.411677 11.880834 5.671237 -0.781192 6.900233 2.003059 -0.948901 8.616701 2.497887 -0.788835 6.882773 2.006645 4.954976 19.839801 0.469221 5.206979 -4.570858 -0.629854 1.376103 1.923884 -2.441918 -17.522511 -5.429779 6.180837 -5.154576 -72.697208 21.360365 8.657963 -5.705524 -7.022832 -7.959694 3.834620 -3.503155 5.875806 -0.309879 -1.844425 -69.156094 -74.333019 74.146456 12.803056 -17.052402 3.793448 -14.328235 -35.999240 2.140837 37.214935 83.699524 31.857908 -0.343221 -17.035288 6.451061 -1.127157 2.188248 -0.511895 -17.542247 -47.000885 16.656106 170.622898 79.391538 165.881451 -1.965444 -16.346756 1.437439 -0.835379 -1.804428 -0.387361
-25.653967 54.688077 38.931041 -178.815766 -30.807628 -11.592129 -1.414791 11.836666 5.678182 -0.795940 6.883869 2.006192 -0.937693 8.612994 2.490880 -0.786377 6.885542 2.003930 4.975271 19.811843 0.462101 5.253854 -4.582070 -0.656390 1.373219 1.923090 -2.425700 -17.531602 -5.427634 6.142723 -4.917415 -72.759828 21.196205 8.626597 -5.778100 -7.061825 -7.958382 3.821210 -3.494718 5.857744 -0.357371 -1.780012 -68.964429 -74.345601 73.941344 12.831287 -17.074147 3.784030 -14.338206 -36.059722 2.158890 37.308572 83.712606 31.950838 -0.339934 -17.052833 6.451247 -1.129711 2.196857 -0.513599 -17.577751 -47.052874 16.688310 170.621661 79.382974 165.879367 -1.944691 -16.350996 1.427441 -0.845409 -1.802424 -0.389685
-25.650845 54.689921 38.927811 -178.839309 -30.771867 -11.578627 -1.409932 11.819667 5.682265 -0.790176 6.861907 2.001098 -0.959594 8.589520 2.497976 -0.785347 6.881059 1.999160 5.015412 19.797202 0.445979 5.294622 -4.605418 -0.679757 1.403841 1.935283 -2.396323 -17.488297 -5.429495 6.068358 -4.819480 -72.808660 21.096261 8.589754 -5.843833 -7.092132 -7.945759 3.823925 -3.497163 5.841038 -0.375079 -1.753079 -68.855496 -74.348429 73.832587 12.865654 -17.095954 3.773636 -14.340687 -36.112006 2.172618 37.440818 83.731001 32.078143 -0.337375 -17.056692 6.451329 -1.129512 2.190388 -0.515212 -17.619068 -47.086389 16.722382 170.603441 79.370467 165.846473 -1.924170 -16.354124 1.418646 -0.859425 -1.805989 -0.396999
